# xmcd
#
# Track frame offsets: 
#        150
#        16829
#        32496
#        48046
#        61020
#        75596
#        88426
#        108579
#        123908
#        141724
#        156325
#        179871
#
# Disc length: 2829 seconds
#
# Revision: 0
# Processed by: cddbd v1.5.1PL2 Copyright (c) Steve Scherf et al.
# Submitted via: ExactAudioCopy v0.95b4
#
DISCID=a00b0b0c
DTITLE=Chicken Legs Weaver - Nowhere
DYEAR=2006
DGENRE=
TTITLE0=Paper House
TTITLE1=In the Ground
TTITLE2=Love Locked
TTITLE3=Desert Rose
TTITLE4=Billboard Queen
TTITLE5=Your Enemy Cannot Harm You
TTITLE6=Howling Road
TTITLE7=Spring Isn't Coming this Year
TTITLE8=Stump Jon and the Owl
TTITLE9=A Mile Out of Town
TTITLE10=Zombiefied
TTITLE11=Sheol Station
EXTD=
EXTT0=
EXTT1=
EXTT2=
EXTT3=
EXTT4=
EXTT5=
EXTT6=
EXTT7=
EXTT8=
EXTT9=
EXTT10=
EXTT11=
PLAYORDER=
